<svg t="1585463015924" class="icon" viewBox="0 0 1024 1024" version="1.1" xmlns="http://www.w3.org/2000/svg" p-id="2548" width="200" height="200"><path d="M695.482 199.921a293.784 293.784 0 0 0-246.057-58.862 291.662 291.662 0 0 0-64.696 548.325 26.515 26.515 0 1 0 23.333-47.727 238.633 238.633 0 0 1 53.03-448.1 241.284 241.284 0 0 1 202.042 47.727 238.633 238.633 0 0 1-11.136 379.161 136.816 136.816 0 0 0-62.575 111.362v16.97l-188.785 33.408a26.515 26.515 0 0 0 4.773 53.03h4.772l211.058-39.772 11.666-3.712 11.667-15.379v-44.545a84.847 84.847 0 0 1 37.65-68.408 291.662 291.662 0 0 0 13.258-463.478z m-83.787 639.006l-208.936 37.12a26.515 26.515 0 0 0 4.773 53.03h4.773l208.936-37.12a26.515 26.515 0 0 0-9.015-53.03zM548.06 961.955a80.075 80.075 0 0 1-72.65 0 26.515 26.515 0 0 0-23.864 45.606 133.104 133.104 0 0 0 60.984 14.848 131.513 131.513 0 0 0 59.924-14.848 26.515 26.515 0 1 0-23.864-47.196zM85.643 477.265h-53.03a26.515 26.515 0 1 0 0 53.03h53.03a26.515 26.515 0 1 0 0-53.03z m143.71-291.662l-37.651-37.65a26.515 26.515 0 0 0-37.651 37.65l37.65 37.651a26.515 26.515 0 1 0 37.652-37.65zM512 106.06a26.515 26.515 0 0 0 26.515-26.515v-53.03a26.515 26.515 0 1 0-53.03 0v53.03A26.515 26.515 0 0 0 512 106.06z m320.298 41.893l-37.65 37.651a26.515 26.515 0 1 0 37.65 37.651l37.651-37.65a26.515 26.515 0 1 0-37.65-37.652z m159.089 329.314h-53.03a26.515 26.515 0 1 0 0 53.03h53.03a26.515 26.515 0 1 0 0-53.03z" p-id="2549" fill="#1afa29"></path></svg>