<svg t="1585098725071" class="icon" viewBox="0 0 1024 1024" version="1.1" xmlns="http://www.w3.org/2000/svg" p-id="3652" width="200" height="200"><path d="M855.897746 396.451556h-78.730803V266.665626C777.166943 120.094448 657.871792 0.799297 511.300615 0.799297S245.434286 120.094448 245.434286 266.665626v129.78593h-78.730803c-59.8474 0-108.504635 48.657235-108.504634 108.504635v410.539174c0 59.8474 48.657235 108.504635 108.504634 108.504635h689.194263c59.8474 0 108.504635-48.657235 108.504635-108.504635V504.956191c0-59.8474-48.657235-108.504635-108.504635-108.504635zM279.504342 266.665626c0-127.887599 104.008586-231.796273 231.796273-231.796273s231.796273 104.008586 231.796273 231.796273v129.78593h-463.592546V266.665626z m650.827983 648.829739c0 41.063909-33.37067 74.434579-74.434579 74.434579H166.803395c-41.063909 0-74.434579-33.37067-74.434579-74.434579V504.956191c0-41.063909 33.37067-74.434579 74.434579-74.434579h689.194263c41.063909 0 74.434579 33.37067 74.434579 74.434579v410.539174z" p-id="3653" fill="#8a8a8a"></path><path d="M633.593131 693.19075H389.008098c-9.391746 0-16.985072 7.593326-16.985071 16.985072s7.593326 16.985072 16.985071 16.985072h244.585033c9.391746 0 16.985072-7.593326 16.985072-16.985072 0.099912-9.391746-7.493414-16.985072-16.985072-16.985072z" p-id="3654" fill="#8a8a8a"></path></svg>